<mxfile host="app.diagrams.net" modified="2022-12-14T12:41:28.409Z" agent="5.0 (Windows NT 10.0; Win64; x64) AppleWebKit/537.36 (KHTML, like Gecko) Chrome/108.0.0.0 Safari/537.36" version="20.6.0" etag="ZcJ8dRDDmz_z6ZHrJWLr" type="github">
  <diagram id="-0tfSZPC8NPuq07lmxgB" name="Seite-1">
    <mxGraphModel dx="881" dy="438" grid="1" gridSize="10" guides="1" tooltips="1" connect="1" arrows="1" fold="1" page="1" pageScale="1" pageWidth="827" pageHeight="1169" math="0" shadow="0">
      <root>
        <mxCell id="0" />
        <mxCell id="1" parent="0" />
        <mxCell id="JOBGLRb0FTB0aSFq3LRK-5" value="k:customer" style="shape=umlLifeline;perimeter=lifelinePerimeter;whiteSpace=wrap;html=1;container=1;collapsible=0;recursiveResize=0;outlineConnect=0;" vertex="1" parent="1">
          <mxGeometry x="120" y="80" width="100" height="460" as="geometry" />
        </mxCell>
        <mxCell id="JOBGLRb0FTB0aSFq3LRK-4" value="" style="html=1;points=[];perimeter=orthogonalPerimeter;" vertex="1" parent="JOBGLRb0FTB0aSFq3LRK-5">
          <mxGeometry x="45" y="70" width="10" height="190" as="geometry" />
        </mxCell>
        <mxCell id="JOBGLRb0FTB0aSFq3LRK-9" value="" style="endArrow=none;html=1;rounded=0;" edge="1" parent="JOBGLRb0FTB0aSFq3LRK-5" target="JOBGLRb0FTB0aSFq3LRK-6">
          <mxGeometry width="50" height="50" relative="1" as="geometry">
            <mxPoint x="55" y="80" as="sourcePoint" />
            <mxPoint x="105" y="80" as="targetPoint" />
          </mxGeometry>
        </mxCell>
        <mxCell id="JOBGLRb0FTB0aSFq3LRK-14" value="" style="endArrow=none;html=1;rounded=0;" edge="1" parent="JOBGLRb0FTB0aSFq3LRK-5">
          <mxGeometry width="50" height="50" relative="1" as="geometry">
            <mxPoint x="55" y="110" as="sourcePoint" />
            <mxPoint x="249.5" y="110" as="targetPoint" />
          </mxGeometry>
        </mxCell>
        <mxCell id="JOBGLRb0FTB0aSFq3LRK-17" value="" style="endArrow=none;html=1;rounded=0;" edge="1" parent="JOBGLRb0FTB0aSFq3LRK-5">
          <mxGeometry width="50" height="50" relative="1" as="geometry">
            <mxPoint x="55" y="110" as="sourcePoint" />
            <mxPoint x="70" y="100" as="targetPoint" />
          </mxGeometry>
        </mxCell>
        <mxCell id="JOBGLRb0FTB0aSFq3LRK-6" value=":Object" style="shape=umlLifeline;perimeter=lifelinePerimeter;whiteSpace=wrap;html=1;container=1;collapsible=0;recursiveResize=0;outlineConnect=0;" vertex="1" parent="1">
          <mxGeometry x="320" y="80" width="100" height="460" as="geometry" />
        </mxCell>
        <mxCell id="JOBGLRb0FTB0aSFq3LRK-7" value="" style="html=1;points=[];perimeter=orthogonalPerimeter;" vertex="1" parent="JOBGLRb0FTB0aSFq3LRK-6">
          <mxGeometry x="45" y="70" width="10" height="190" as="geometry" />
        </mxCell>
        <mxCell id="JOBGLRb0FTB0aSFq3LRK-10" value="" style="endArrow=none;html=1;rounded=0;" edge="1" parent="JOBGLRb0FTB0aSFq3LRK-6">
          <mxGeometry width="50" height="50" relative="1" as="geometry">
            <mxPoint x="30" y="90" as="sourcePoint" />
            <mxPoint x="45" y="80" as="targetPoint" />
          </mxGeometry>
        </mxCell>
        <mxCell id="JOBGLRb0FTB0aSFq3LRK-11" value="" style="endArrow=none;html=1;rounded=0;entryX=-0.016;entryY=0.048;entryDx=0;entryDy=0;entryPerimeter=0;" edge="1" parent="JOBGLRb0FTB0aSFq3LRK-6" target="JOBGLRb0FTB0aSFq3LRK-7">
          <mxGeometry width="50" height="50" relative="1" as="geometry">
            <mxPoint x="30" y="70" as="sourcePoint" />
            <mxPoint x="45" y="60" as="targetPoint" />
          </mxGeometry>
        </mxCell>
        <mxCell id="JOBGLRb0FTB0aSFq3LRK-12" value="searching(this, title)" style="text;html=1;align=center;verticalAlign=middle;resizable=0;points=[];autosize=1;strokeColor=none;fillColor=none;" vertex="1" parent="1">
          <mxGeometry x="210" y="135" width="130" height="30" as="geometry" />
        </mxCell>
        <mxCell id="JOBGLRb0FTB0aSFq3LRK-16" value="" style="endArrow=none;html=1;rounded=0;" edge="1" parent="1" target="JOBGLRb0FTB0aSFq3LRK-6">
          <mxGeometry width="50" height="50" relative="1" as="geometry">
            <mxPoint x="370" y="190" as="sourcePoint" />
            <mxPoint x="385" y="180" as="targetPoint" />
          </mxGeometry>
        </mxCell>
        <mxCell id="JOBGLRb0FTB0aSFq3LRK-18" value="" style="endArrow=none;html=1;rounded=0;exitX=1.052;exitY=0.211;exitDx=0;exitDy=0;exitPerimeter=0;" edge="1" parent="1" source="JOBGLRb0FTB0aSFq3LRK-4">
          <mxGeometry width="50" height="50" relative="1" as="geometry">
            <mxPoint x="240" y="280" as="sourcePoint" />
            <mxPoint x="190" y="200" as="targetPoint" />
          </mxGeometry>
        </mxCell>
        <mxCell id="JOBGLRb0FTB0aSFq3LRK-19" value="return(books)" style="text;html=1;align=center;verticalAlign=middle;resizable=0;points=[];autosize=1;strokeColor=none;fillColor=none;" vertex="1" parent="1">
          <mxGeometry x="205" y="165" width="90" height="30" as="geometry" />
        </mxCell>
        <mxCell id="JOBGLRb0FTB0aSFq3LRK-20" value="loop (1,*)" style="shape=umlFrame;whiteSpace=wrap;html=1;" vertex="1" parent="1">
          <mxGeometry x="120" y="140" width="300" height="300" as="geometry" />
        </mxCell>
        <mxCell id="JOBGLRb0FTB0aSFq3LRK-21" value="opt" style="shape=umlFrame;whiteSpace=wrap;html=1;" vertex="1" parent="1">
          <mxGeometry x="130" y="205" width="160" height="95" as="geometry" />
        </mxCell>
        <mxCell id="JOBGLRb0FTB0aSFq3LRK-23" value="" style="html=1;points=[];perimeter=orthogonalPerimeter;" vertex="1" parent="1">
          <mxGeometry x="170" y="250" width="10" height="40" as="geometry" />
        </mxCell>
        <mxCell id="JOBGLRb0FTB0aSFq3LRK-24" value="read description" style="edgeStyle=orthogonalEdgeStyle;html=1;align=left;spacingLeft=2;endArrow=block;rounded=0;entryX=1;entryY=0;" edge="1" target="JOBGLRb0FTB0aSFq3LRK-23" parent="1">
          <mxGeometry relative="1" as="geometry">
            <mxPoint x="190" y="240" as="sourcePoint" />
            <Array as="points">
              <mxPoint x="200" y="240" />
              <mxPoint x="200" y="250" />
            </Array>
          </mxGeometry>
        </mxCell>
        <mxCell id="JOBGLRb0FTB0aSFq3LRK-25" value="opt" style="shape=umlFrame;whiteSpace=wrap;html=1;" vertex="1" parent="1">
          <mxGeometry x="130" y="300" width="160" height="95" as="geometry" />
        </mxCell>
        <mxCell id="JOBGLRb0FTB0aSFq3LRK-27" value="" style="html=1;points=[];perimeter=orthogonalPerimeter;" vertex="1" parent="1">
          <mxGeometry x="165" y="350" width="10" height="20" as="geometry" />
        </mxCell>
        <mxCell id="JOBGLRb0FTB0aSFq3LRK-28" value="place in cart" style="edgeStyle=orthogonalEdgeStyle;html=1;align=left;spacingLeft=2;endArrow=block;rounded=0;entryX=1;entryY=0;exitX=0.438;exitY=0.421;exitDx=0;exitDy=0;exitPerimeter=0;" edge="1" target="JOBGLRb0FTB0aSFq3LRK-27" parent="1" source="JOBGLRb0FTB0aSFq3LRK-25">
          <mxGeometry relative="1" as="geometry">
            <mxPoint x="220" y="310" as="sourcePoint" />
            <Array as="points">
              <mxPoint x="210" y="340" />
              <mxPoint x="210" y="350" />
            </Array>
          </mxGeometry>
        </mxCell>
        <mxCell id="JOBGLRb0FTB0aSFq3LRK-31" value="purchase" style="html=1;verticalAlign=bottom;endArrow=block;rounded=0;" edge="1" parent="1" target="JOBGLRb0FTB0aSFq3LRK-6">
          <mxGeometry x="0.0025" y="10" width="80" relative="1" as="geometry">
            <mxPoint x="170" y="480" as="sourcePoint" />
            <mxPoint x="250" y="480" as="targetPoint" />
            <mxPoint as="offset" />
          </mxGeometry>
        </mxCell>
        <mxCell id="JOBGLRb0FTB0aSFq3LRK-32" value="success" style="endArrow=block;endFill=1;html=1;edgeStyle=orthogonalEdgeStyle;align=left;verticalAlign=top;rounded=0;" edge="1" parent="1" source="JOBGLRb0FTB0aSFq3LRK-6" target="JOBGLRb0FTB0aSFq3LRK-5">
          <mxGeometry x="-0.0035" y="-10" relative="1" as="geometry">
            <mxPoint x="300" y="520" as="sourcePoint" />
            <mxPoint x="340" y="520" as="targetPoint" />
            <Array as="points">
              <mxPoint x="290" y="520" />
              <mxPoint x="290" y="520" />
            </Array>
            <mxPoint as="offset" />
          </mxGeometry>
        </mxCell>
        <mxCell id="JOBGLRb0FTB0aSFq3LRK-33" value="1" style="edgeLabel;resizable=0;html=1;align=left;verticalAlign=bottom;" connectable="0" vertex="1" parent="JOBGLRb0FTB0aSFq3LRK-32">
          <mxGeometry x="-1" relative="1" as="geometry" />
        </mxCell>
      </root>
    </mxGraphModel>
  </diagram>
</mxfile>
